<?xml version="1.0" encoding="utf-8"?>
<!-- Generator: Adobe Illustrator 25.4.1, SVG Export Plug-In . SVG Version: 6.00 Build 0)  -->
<svg version="1.1" id="Layer_1" xmlns="http://www.w3.org/2000/svg" xmlns:xlink="http://www.w3.org/1999/xlink" x="0px" y="0px"
	 viewBox="0 0 124.5 45.1" style="enable-background:new 0 0 124.5 45.1;" xml:space="preserve">
<style type="text/css">
	.st0{fill:#FFFFFF;}
</style>
<path class="st0" d="M46.8,35c-4.8-0.7-7.1-3.7-7.1-8.9c0-6.3,3.2-9.7,9.2-9.7c4.7,0,7.3,1.9,8.3,6c0.3,1.3,0.3,4.9-0.1,6.5
	C56.4,32,54.7,34,52,34.7C51.1,35,47.8,35.2,46.8,35L46.8,35z M49.8,29.9c0.7-0.7,1-3.4,0.7-6c-0.2-1.9-0.6-2.6-1.4-2.8
	c-0.9-0.2-1.5,0.1-2,1.2c-0.3,0.7-0.4,1.2-0.5,2.7c-0.2,3.7,0.5,5.3,2.1,5.3C49.3,30.3,49.5,30.2,49.8,29.9z M9.8,21.9V8.9h4.6
	c2.5,0,4.6,0,4.7,0c0.1,0,1.1,3.8,2.3,8.4c1.2,4.7,2.2,8.4,2.3,8.4c0.1-0.1,1-3.6,2-7.8c1.1-4.2,2-8,2.1-8.3l0.2-0.6h9.8v25.8h-3.5
	h-3.5l0-7.6l0-7.6l-2.1,7.1c-1.2,3.9-2.2,7.3-2.3,7.6L26,34.8h-2.9h-2.9l-0.3-0.9c-0.1-0.5-1.1-3.9-2.2-7.5l-1.9-6.6l0,7.5l0,7.5
	h-2.9H9.8L9.8,21.9z M59.8,21.9V9l4.7,0l4.7,0l0.2,0.5c0.1,0.3,1.1,4.1,2.2,8.5c1.1,4.4,2.1,7.9,2.1,7.8c0.1-0.1,1-3.6,2.1-7.9
	c1.1-4.3,2-8,2.1-8.3L78,8.9h9.8v25.8h-3.5h-3.5l0-7.6l0-7.6l-1.4,4.7c-0.8,2.6-1.8,6-2.3,7.6l-0.9,2.9h-2.9h-2.9L70.1,34
	c-0.1-0.4-1.1-3.8-2.2-7.5l-2-6.7l0,7.5l0,7.5h-3h-3L59.8,21.9z M89.3,34.1c0.3-1,5.6-16.4,7.2-21.3l1.3-3.8h7.1l1.7,5.1
	c3.8,11.3,6.9,20.4,6.9,20.6c0,0.1-1.6,0.1-3.6,0.1l-3.6,0l-0.1-0.4c-0.1-0.2-0.4-1.3-0.8-2.5l-0.6-2H101h-3.8l-0.8,2.5l-0.8,2.5
	l-3.3,0l-3.3,0L89.3,34.1z M102.8,23.4c-0.1-0.4-0.5-1.8-0.9-3.1c-0.4-1.3-0.8-2.5-0.8-2.6c-0.1-0.1-1.7,4.7-2,6
	c-0.1,0.4-0.1,0.4,1.9,0.4h2L102.8,23.4z"/>
</svg>
